<svg xmlns="http://www.w3.org/2000/svg" width="91" height="20" fill="none"><g fill="#DEDEDE" clip-path="url(#a)"><path d="M1.12 1.12v.98h8.29v1.13H1.12v2.1H0V0h9.4v1.12H1.13ZM18.05 3.23a1.58 1.58 0 0 0 1.14-.47 1.63 1.63 0 0 0 .34-1.78A1.62 1.62 0 0 0 18.05 0h-7.8v5.35h1.11V3.23h5.16l1.95 2.1H20l-1.95-2.1Zm-6.69-2.1h6.67c.07 0 .13.01.19.04s.11.06.16.11l.11.16a.47.47 0 0 1-.11.53.47.47 0 0 1-.35.15h-6.67v-.99ZM29.66 1.63A2.74 2.74 0 0 0 28.25.2C27.92.07 27.56 0 27.2 0h-4.05a2.63 2.63 0 0 0-2.65 2.66v2.68h1.1V3.8h7.14v1.54h1.12V2.66c0-.35-.06-.7-.2-1.03Zm-6.51-.5h4.05a1.54 1.54 0 0 1 1.55 1.53l-7.16.01a1.62 1.62 0 0 1 .96-1.42c.2-.08.4-.12.6-.12ZM39.99 0v5.36h-1.12V2.02l-3.52 2.73-3.52-2.73v3.34H30.7V0l4.64 3.34L39.99 0ZM42.15 1.9l-.1.2h8.2v1.13h-8.2a1.57 1.57 0 0 0 1.44.99h6.75v1.12H43.5a2.6 2.6 0 0 1-1.88-.79 2.7 2.7 0 0 1-.79-1.88A2.67 2.67 0 0 1 43.5 0h6.75v1.13H43.5a1.54 1.54 0 0 0-1.34.78ZM60.66 0l-2.6 5.36L55.8 1.5l-2.27 3.86L50.92 0h1.25l1.43 3.15L55.33 0h.93l1.72 3.15L59.42 0h1.24ZM69.73 1.63A2.77 2.77 0 0 0 68.3.2 2.63 2.63 0 0 0 67.26 0H63.2a2.66 2.66 0 0 0-2.46 3.7 2.7 2.7 0 0 0 1.42 1.43c.33.14.68.2 1.04.2h4.06a2.65 2.65 0 0 0 2.67-2.67c0-.35-.07-.7-.2-1.03Zm-2.47 2.59H63.2a1.59 1.59 0 0 1-1.43-.95 1.53 1.53 0 0 1 .83-2.03c.19-.08.4-.12.6-.12h4.06c.21 0 .41.04.6.12a1.6 1.6 0 0 1 .83.84c.08.18.13.39.12.6 0 .2-.04.4-.12.6-.08.18-.2.34-.33.49-.14.14-.3.25-.48.32-.2.09-.4.13-.62.13ZM78.58 3.23a1.58 1.58 0 0 0 1.14-.47 1.65 1.65 0 0 0 .47-1.14A1.62 1.62 0 0 0 78.58 0h-7.8v5.35h1.11V3.23h5.16L79 5.33h1.53l-1.95-2.1Zm-6.69-2.1h6.69c.06 0 .12.01.18.04a.54.54 0 0 1 .27.27.44.44 0 0 1 0 .37.6.6 0 0 1-.1.16.48.48 0 0 1-.35.15h-6.69v-.99ZM86.11 2.67 91 5.34h-2.32l-3.86-2.12h-2.7v2.12h-1.1V0h1.1v2.11h2.7L88.68 0H91l-4.89 2.67ZM20.2 8.94v1.83h-9.18v9.22H9.18v-9.22H0V8.94h20.2ZM25.81 12.64c-.16.28-.29.59-.37.91h18.04v1.83H25.44a3.75 3.75 0 0 0 3.59 2.8h14.45V20H29.03a5.4 5.4 0 0 1-3.91-1.62 5.57 5.57 0 0 1-1.62-3.9 5.53 5.53 0 0 1 5.53-5.53h14.45v1.8H29.03a3.6 3.6 0 0 0-2.4.9c-.33.28-.6.62-.82.99ZM66.9 12.3a5.63 5.63 0 0 0-2.92-2.92 5.42 5.42 0 0 0-2.15-.43h-8.89a5.55 5.55 0 0 0-5.51 5.5V20h1.81v-3.39h16.29V20h1.82v-5.55c0-.74-.15-1.47-.44-2.14Zm-13.96-1.55h8.89a3.61 3.61 0 0 1 2.62 1.1 3.64 3.64 0 0 1 1.08 2.6v.35H49.24v-.35a3.83 3.83 0 0 1 2.26-3.4c.46-.2.95-.3 1.44-.3ZM90.98 8.94v11.05h-1.8v-7.65l-8.04 6.24-8.03-6.24V20h-1.8V8.94l9.83 7.35 9.84-7.35Z"/></g><defs><clipPath id="a"><path fill="#fff" d="M0 0h91v20H0z"/></clipPath></defs></svg>